<svg x="0" y="0" width="300" height="300" version="1.1" xmlns="http://www.w3.org/2000/svg" xmlns:xlink="http://www.w3.org/1999/xlink"><g data-paper-data="{&quot;description&quot;:&quot;Logo for novatix\n================\n\nThis logo was generated by MarkMaker and is composed of elements designed by others.\n\nThe font is Expletus Sans SemiBold Italic designed by Designtown and released under the OFL license via Google Fonts: https://www.google.com/fonts/specimen/Expletus Sans. The font includes this copyright statement: Copyright (c) 2010 by Jasper de Waard (jasper@designtown.nl). All rights reserved.\n\nMarkMaker uses semantic data from the Princeton University WordNet database http://wordnet.princeton.edu and font descriptions from Google Fonts https://www.google.com/fonts.\n\nThis design is inspired by designs that past users of MarkMaker have liked. As a result, it may be visually similar to past or future designs generated by the system. There is no guarantee that it is unique, original, or suitable in any way for use as a logo.\n\n&quot;}" fill="#fff" stroke="none" stroke-width="1" stroke-linecap="butt" stroke-linejoin="miter" stroke-miterlimit="10" stroke-dasharray="" stroke-dashoffset="0" font-family="sans-serif" font-weight="normal" font-size="12" text-anchor="start" mix-blend-mode="normal"><g data-paper-data="{&quot;elementType&quot;:&quot;logo&quot;}"><g data-paper-data="{&quot;elementType&quot;:&quot;text&quot;}"><g data-paper-data="{&quot;baseline&quot;:74.2,&quot;elementType&quot;:&quot;row&quot;}"><g data-paper-data="{&quot;baselineProportion&quot;:0.9840848806366047,&quot;fontSize&quot;:100,&quot;baseline&quot;:74.2,&quot;elementType&quot;:&quot;word&quot;}"><path d="M32.70471,179.99144l3.69757,-30.40228c0.21912,-1.58859 0.05478,-2.88959 -0.49301,-3.903c-0.54779,-1.01341 -1.58859,-1.52011 -3.1224,-1.52011c-0.87646,0 -1.73923,0.12325 -2.5883,0.36976c-0.84907,0.2465 -1.73923,0.31498 -2.67047,0.20542c-1.09558,0 -1.97204,-0.43823 -2.62939,-1.31469c-0.65735,-0.87646 -1.2873,-1.83509 -1.88987,-2.87589c2.95806,-1.58859 5.47789,-2.65678 7.55949,-3.20456c2.0816,-0.54779 3.99886,-0.82168 5.75178,-0.82168c1.47903,0 2.90328,0.2465 4.27275,0.73951c1.36947,0.49301 2.53352,1.27361 3.49215,2.3418c0.95863,1.06819 1.67076,2.43766 2.13638,4.10842c0.46562,1.67076 0.56148,3.68388 0.28759,6.03937l-3.69757,30.23795l-10.1067,0 M9.77974,137.92126l8.299,-0.41084c1.15036,1.47903 1.83509,2.94437 2.05421,4.39601c0.21912,1.45164 0.21912,2.99914 0,4.64251l-4.02625,33.44251l-10.1067,0l3.86191,-31.71698c0.32867,-3.17718 0.30128,-6.62825 -0.08217,-10.35321z" data-paper-data="{&quot;elementType&quot;:&quot;letter&quot;,&quot;baseline&quot;:52.900000000000006,&quot;baselineProportion&quot;:1,&quot;fontSize&quot;:100}"></path><path d="M54.23281,158.70984c0.49301,-3.83452 1.5612,-7.14864 3.20456,-9.94237c1.64337,-2.79372 3.60171,-5.09444 5.87504,-6.90214c2.27332,-1.8077 4.71098,-3.14979 7.31298,-4.02625c2.602,-0.87646 5.10813,-1.31469 7.5184,-1.31469c3.23195,0 6.08046,0.56148 8.54551,1.68445c2.46505,1.12297 4.50556,2.67047 6.12154,4.64251c1.61598,1.97204 2.75264,4.31384 3.40999,7.02539c0.65735,2.71155 0.79429,5.65592 0.41084,8.8331c-0.43823,3.56063 -1.42425,6.71041 -2.95806,9.44936c-1.53381,2.73894 -3.40999,5.06705 -5.62853,6.98431c-2.21854,1.91726 -4.65621,3.3689 -7.31298,4.35492c-2.65678,0.98602 -5.32725,1.47903 -8.01141,1.47903c-2.8485,0 -5.49158,-0.49301 -7.92924,-1.47903c-2.43766,-0.98602 -4.50556,-2.42397 -6.20371,-4.31384c-1.69815,-1.88987 -2.95806,-4.21797 -3.77974,-6.98431c-0.82168,-2.76633 -1.01341,-5.92981 -0.57518,-9.49044z M64.91469,158.70984c-0.27389,2.19116 -0.27389,4.19058 0,5.99829c0.27389,1.8077 0.7806,3.3689 1.52011,4.68359c0.73951,1.31469 1.71184,2.3281 2.91698,3.04023c1.20514,0.71213 2.62939,1.06819 4.27275,1.06819c1.75292,0 3.32782,-0.38345 4.72468,-1.15036c1.39686,-0.7669 2.61569,-1.8214 3.65649,-3.16348c1.0408,-1.34208 1.88987,-2.91698 2.54722,-4.72468c0.65735,-1.8077 1.12297,-3.72496 1.39686,-5.75178c0.54779,-4.43709 0.02739,-7.99772 -1.5612,-10.68188c-1.58859,-2.68417 -3.97147,-4.02625 -7.14864,-4.02625c-3.17718,0 -5.87504,1.34208 -8.09358,4.02625c-2.21854,2.68417 -3.6291,6.24479 -4.23167,10.68188" data-paper-data="{&quot;elementType&quot;:&quot;letter&quot;,&quot;baseline&quot;:52.900000000000006,&quot;baselineProportion&quot;:0.9778188539741219,&quot;fontSize&quot;:100}"></path><path d="M124.89757,179.99144l-10.68188,0l-10.76405,-42.48103l10.59971,0l6.7378,33.52468l0.82168,-2.30071l13.96862,-31.22397l10.18887,0.57518l-20.87076,41.90585z" data-paper-data="{&quot;elementType&quot;:&quot;letter&quot;,&quot;baseline&quot;:51.7,&quot;baselineProportion&quot;:1,&quot;fontSize&quot;:100}"></path><path d="M186.11298,164.62596c-0.32867,2.79372 -0.57518,5.36833 -0.73951,7.72382c-0.16434,2.35549 -0.10956,4.76576 0.16434,7.23081l-7.64165,0.41084c-0.82168,-0.65735 -1.50642,-1.71184 -2.05421,-3.16348c-0.54779,-1.45164 -0.68474,-3.13609 -0.41084,-5.05335l3.28673,-26.95121c-1.15036,-0.27389 -2.21854,-0.46562 -3.20456,-0.57518c-0.98602,-0.10956 -1.88987,-0.16434 -2.71155,-0.16434c-3.94408,0 -7.14864,1.41056 -9.61369,4.23167c-2.46505,2.82111 -3.99886,6.64194 -4.60143,11.46248c-0.21912,1.69815 -0.27389,3.3689 -0.16434,5.01227c0.10956,1.64337 0.41084,3.09501 0.90385,4.35492c0.49301,1.25991 1.23252,2.23224 2.21854,2.91698c0.98602,0.68474 2.27332,0.94494 3.86191,0.7806c1.47903,-0.16434 2.68417,0.16434 3.61541,0.98602c0.93124,0.82168 1.83509,1.94465 2.71155,3.3689c-1.58859,0.93124 -3.16348,1.71184 -4.72468,2.3418c-1.5612,0.62996 -2.99914,0.99971 -4.31384,1.10927c-2.57461,0.21912 -4.86163,-0.21912 -6.86106,-1.31469c-1.99943,-1.09558 -3.6428,-2.62939 -4.9301,-4.60143c-1.2873,-1.97204 -2.19116,-4.25906 -2.71155,-6.86106c-0.5204,-2.602 -0.61626,-5.29986 -0.28759,-8.09358c0.38345,-3.28673 1.27361,-6.35435 2.67047,-9.20285c1.39686,-2.8485 3.20456,-5.29986 5.42311,-7.35407c2.21854,-2.05421 4.80685,-3.67019 7.76491,-4.84793c2.95806,-1.17775 6.19001,-1.76662 9.69586,-1.76662c1.15036,0 2.28702,0.04108 3.40999,0.12325c1.12297,0.08217 2.30071,0.21912 3.53324,0.41084c1.23252,0.19173 2.57461,0.45193 4.02625,0.7806c1.45164,0.32867 3.05392,0.73951 4.80685,1.23252l-3.1224,25.47218z" data-paper-data="{&quot;elementType&quot;:&quot;letter&quot;,&quot;baseline&quot;:52.800000000000004,&quot;baselineProportion&quot;:0.9838509316770188,&quot;fontSize&quot;:100}"></path><path d="M201.31412,163.96862l2.38288,-19.22739l-7.06648,0l0.65735,-5.42311l7.31298,-1.8077l1.23252,-10.35321l9.94237,-3.1224l-4.9301,40.26248c-0.32867,2.79372 -0.01369,5.03966 0.94494,6.7378c0.95863,1.69815 2.42397,2.54722 4.39601,2.54722c0.87646,0 1.83509,-0.09586 2.87589,-0.28759c1.0408,-0.19173 2.30071,-0.5067 3.77974,-0.94494l1.31469,6.57347c-2.13638,0.71213 -3.93039,1.23252 -5.38203,1.5612c-1.45164,0.32867 -2.8622,0.49301 -4.23167,0.49301c-4.98488,0 -8.60029,-1.46534 -10.84622,-4.39601c-2.24593,-2.93067 -3.04023,-7.13495 -2.38288,-12.61284z M227.85449,144.74123l-4.10842,0c-1.09558,0 -2.04051,-0.21912 -2.83481,-0.65735c-0.79429,-0.43823 -1.45164,-0.99971 -1.97204,-1.68445c-0.5204,-0.68474 -0.94494,-1.45164 -1.27361,-2.30071c-0.32867,-0.84907 -0.57518,-1.71184 -0.73951,-2.5883l11.83224,0l-0.90385,7.23081" data-paper-data="{&quot;elementType&quot;:&quot;letter&quot;,&quot;baseline&quot;:68.10000000000001,&quot;baselineProportion&quot;:0.9826839826839826,&quot;fontSize&quot;:100}"></path><path d="M243.63081,179.99144l-10.1067,0l5.1766,-42.48103l10.1067,0l-5.1766,42.48103z M239.19372,125.18516c0.27389,-1.75292 1.05449,-3.21826 2.3418,-4.39601c1.2873,-1.17775 2.78003,-1.76662 4.47817,-1.76662c1.75292,0 3.13609,0.58887 4.1495,1.76662c1.01341,1.17775 1.38317,2.64308 1.10927,4.39601c-0.21912,1.69815 -0.97233,3.13609 -2.25963,4.31384c-1.2873,1.17775 -2.80742,1.76662 -4.56034,1.76662c-1.69815,0 -3.05392,-0.58887 -4.06733,-1.76662c-1.01341,-1.17775 -1.41056,-2.61569 -1.19144,-4.31384" data-paper-data="{&quot;elementType&quot;:&quot;letter&quot;,&quot;baseline&quot;:74.2,&quot;baselineProportion&quot;:1,&quot;fontSize&quot;:100}"></path><path d="M290.13809,179.99144l-11.25706,0c-1.75292,-3.50585 -3.53324,-6.98431 -5.34094,-10.43538c-1.8077,-3.45107 -3.6428,-6.90214 -5.50528,-10.35321l-11.58573,-21.69244l11.33923,0l5.75178,12.9826l0.2465,1.72553l0.90385,-1.72553l8.95635,-12.9826l10.35321,0.57518l-16.18716,20.62425l12.32525,21.2816z M266.06277,173.25364l-4.84793,6.7378l-10.68188,0l14.87247,-18.24137c0.43823,0.65735 0.84907,1.42425 1.23252,2.30071c0.38345,0.87646 0.65735,1.8214 0.82168,2.83481c0.16434,1.01341 0.15064,2.0679 -0.04108,3.16348c-0.19173,1.09558 -0.64365,2.16377 -1.35578,3.20456" data-paper-data="{&quot;elementType&quot;:&quot;letter&quot;,&quot;baseline&quot;:51.7,&quot;baselineProportion&quot;:1,&quot;fontSize&quot;:100}"></path></g></g></g></g></g></svg>